<svg xmlns="http://www.w3.org/2000/svg" viewBox="0 0 91 91"><g fill-rule="evenodd"><path d="M77.15 12.81a45.5 45.5 0 0 1 3.2 61.94c5.53-28.65-9.69-49.06-39.51-54.54 9.31-7.28 21.69-10.07 36.31-7.4z" fill="#f05a37"/><path d="M12.81 13.85a45.5 45.5 0 0 1 61.94-3.2c-28.65-5.53-49.06 9.7-54.54 39.52-7.28-9.32-10.07-21.69-7.4-36.32z" fill="#075586"/><path d="M78.19 77.15a45.5 45.5 0 0 1-61.94 3.2c28.65 5.53 49.06-9.7 54.55-39.52 7.28 9.32 10.06 21.7 7.39 36.32z" fill="#b83024"/><path d="M13.85 78.19a45.5 45.5 0 0 1-3.2-61.94C5.13 44.9 20.35 65.31 50.17 70.8c-9.32 7.28-21.69 10.06-36.32 7.39z" fill="#01adbb"/></g></svg>